# xmcd CD database file
#
# Track frame offsets:
#	150
#	19540
#	36473
#	57492
#	76791
#	94544
#	111882
#	133204
#	157134
#	173916
#	187892
#	209624
#	228068
#
# Disc length: 3317 seconds
#
# Revision: 0
# Processed by: cddbd v1.5.2PL0 Copyright (c) Steve Scherf et al.
# Submitted via: CDex 1.51
#
DISCID=a90cf30d
DTITLE=Martin Schmitt - Aufbassn
DYEAR=2012
DGENRE=Blues
TTITLE0=is denn des zwui verlangt
TTITLE1=da mada wa da
TTITLE2=sehnot
TTITLE3=aufbassn
TTITLE4=nimma dahoam
TTITLE5=des gehd ned guad
TTITLE6=ohne worte
TTITLE7=am kinderbett
TTITLE8=sixdas
TTITLE9=schmittish airways
TTITLE10=ned normal
TTITLE11=der nektar ist ein fluss
TTITLE12=schau nach vorn
EXTD=YEAR: 2012
EXTT0=
EXTT1=
EXTT2=
EXTT3=
EXTT4=
EXTT5=
EXTT6=
EXTT7=
EXTT8=
EXTT9=
EXTT10=
EXTT11=
EXTT12=
PLAYORDER=
